PathFileType	4	(X/Y/Z)	6_coords_data.trc
DataRate	CameraRate	NumFrames	NumMarkers	Units	OrigDataRate	OrigDataStartFrame	OrigNumFrames
30.0	30.0	4	21	m	30.0	1	72
Frame#	Time	THUMB_TIP	THUMB_IP	THUMB_MCP	THUMB_CMC	INDEX_TIP	INDEX_DIP	INDEX_PIP	INDEX_MCP	MIDDLE_TIP	MIDDLE_DIP	MIDDLE_PIP	MIDDLE_MCP	RING_TIP	RING_DIP	RING_PIP	RING_MCP	PINKY_TIP	PINKY_DIP	PINKY_PIP	PINKY_MCP	WRIST
X1	Y1	Z1	X2	Y2	Z2	X3	Y3	Z3	X4	Y4	Z4	X5	Y5	Z5	X6	Y6	Z6	X7	Y7	Z7	X8	Y8	Z8	X9	Y9	Z9	X10	Y10	Z10	X11	Y11	Z11	X12	Y12	Z12	X13	Y13	Z13	X14	Y14	Z14	X15	Y15	Z15	X16	Y16	Z16	X17	Y17	Z17	X18	Y18	Z18	X19	Y19	Z19	X20	Y20	Z20	X21	Y21	Z21
0	0.0	0.051608699798583985	-0.1480989990234375	1.0547900390625	0.0414718017578125	-0.12607499694824217	1.0657900390625	0.018861000061035155	-0.11160399627685547	1.08231005859375	0.004589439868927002	-0.07411370086669922	1.09022998046875	0.04382049942016602	-0.12395099639892578	0.9597689819335937	0.032421100616455076	-0.11956700134277344	0.9799359741210938	0.01878450012207031	-0.1120199966430664	1.0021199951171875	0.0023031198978424074	-0.09973349761962891	1.0352099609375	0.043157100677490234	-0.08613099670410156	0.9388250122070313	0.02851569938659668	-0.08671690368652343	0.9610349731445312	0.012137100219726563	-0.08382740020751953	0.9906380004882812	-0.009286170005798339	-0.07766449737548828	1.02406005859375	0.03595489883422852	-0.049891300201416015	0.9400139770507813	0.026488000869750977	-0.05049420166015625	0.9636589965820312	0.015689900398254394	-0.05320100021362305	0.9911099853515625	-0.003454780101776123	-0.05398899841308594	1.02618994140625	0.03620199966430664	-0.014793399810791016	0.9727360229492188	0.023241300582885743	-0.02007200050354004	0.9907349853515625	0.013978500366210938	-0.024425899505615235	1.0058900146484375	0.0008891659975051881	-0.033173198699951174	1.0309300537109376	-0.028779300689697265	-0.047662498474121094	1.1020400390625
1	0.03333333333333333	0.05156110000610352	-0.14867500305175782	1.055469970703125	0.03984479904174805	-0.1256800003051758	1.066219970703125	0.016923799514770507	-0.11063200378417969	1.0836300048828125	0.0017911000251770019	-0.07609239959716797	1.09056005859375	0.04349959945678711	-0.12445600128173828	0.9615269775390625	0.03133830070495605	-0.11933200073242188	0.9808359985351562	0.018999399185180663	-0.11309300231933593	1.0016900024414062	0.001080559968948364	-0.09977179718017579	1.0355	0.04205860137939453	-0.08682499694824218	0.9388380126953125	0.02886800003051758	-0.08584529876708985	0.9607540283203125	0.012790599822998046	-0.083841796875	0.9879240112304688	-0.005716639995574951	-0.0773322982788086	1.0255	0.035859798431396486	-0.04991379928588867	0.940323974609375	0.025830299377441406	-0.05124089813232422	0.9629149780273437	0.014490099906921386	-0.05299919891357422	0.9896950073242188	-0.002572880029678344	-0.05483509826660156	1.0266400146484376	0.035420600891113284	-0.015577199935913087	0.9737100219726562	0.02422400093078613	-0.020044599533081055	0.9902919921875	0.013625900268554687	-0.024877700805664062	1.0064000244140625	0.000149244993925094	-0.03409460067749023	1.032010009765625	-0.028378700256347655	-0.04725630187988281	1.10256005859375
2	0.06666666666666667	0.05153099822998047	-0.1487530059814453	1.0554200439453125	0.039692501068115234	-0.12575	1.0663199462890625	0.016809799194335937	-0.11083699798583985	1.083739990234375	0.0016332499980926509	-0.07627899932861328	1.0906500244140624	0.04321989822387695	-0.12468599700927735	0.9617109985351563	0.0310851993560791	-0.11959500122070313	0.9809409790039062	0.01870210075378418	-0.11338300323486328	1.00177001953125	0.0006571409702301021	-0.10009600067138671	1.03568994140625	0.04167480087280274	-0.08706150054931641	0.9389359741210938	0.028433900833129883	-0.08606690216064453	0.9609210205078125	0.012432700157165527	-0.08406040191650391	0.9881530151367187	-0.005956940174102783	-0.07766339874267578	1.02552001953125	0.03537990188598633	-0.050159900665283204	0.9404169921875	0.02536090087890625	-0.05154399871826172	0.9630549926757812	0.014052499771118164	-0.05331869888305664	0.9897579956054687	-0.002973870038986206	-0.05513819885253906	1.0266700439453125	0.0349995002746582	-0.015916199684143068	0.9737769775390624	0.023843500137329103	-0.020388999938964845	0.9904180297851563	0.013243100166320802	-0.0252096004486084	1.0065499877929687	-0.00027663001418113704	-0.03440280151367187	1.03222998046875	-0.028554100036621094	-0.047599399566650394	1.1026700439453125
3	0.1	0.05145299911499023	-0.14886500549316406	1.0558800048828125	0.03963119888305664	-0.12598699951171874	1.06675	0.016507600784301756	-0.11104299926757813	1.08406005859375	0.001341359972953796	-0.07647509765625	1.0908699951171874	0.043093498229980466	-0.1250260009765625	0.961948974609375	0.03085849952697754	-0.1199020004272461	0.9811669921875	0.018492300033569335	-0.11364199829101562	1.002	0.0005083500146865841	-0.10021499633789062	1.0358599853515624	0.04164699935913086	-0.08732630157470703	0.9391489868164062	0.028356700897216796	-0.0863376007080078	0.9610590209960937	0.012226699829101562	-0.08431099700927734	0.9882760009765625	-0.006184319972991944	-0.07785520172119141	1.0256400146484375	0.035295398712158206	-0.05045650100708008	0.9405549926757812	0.025245100021362304	-0.05181290054321289	0.9632249755859374	0.013954999923706055	-0.053549999237060546	0.9898920288085937	-0.0032321898937225342	-0.05531399917602539	1.0267900390625	0.03488669967651367	-0.016182500839233397	0.9738989868164063	0.023741500854492188	-0.02063129997253418	0.9905549926757813	0.013136099815368653	-0.025410999298095704	1.0065900268554688	-0.000317865014076232	-0.03457080078125	1.0323399658203125	-0.028892000198364257	-0.047577999114990235	1.1029000244140625
